# xmcd
#
# Track frame offsets: 
#        150
#        7982
#        26985
#        47160
#        68762
#        91490
#        96122
#        114177
#        133642
#        152517
#        170375
#        176145
#        197960
#        215790
#        234692
#        252797
#        258635
#        274542
#        294350
#        309240
#
# Disc length: 4398 seconds
#
# Revision: 5
# Processed by: cddbd v1.5.2PL0 Copyright (c) Steve Scherf et al.
# Submitted via: ExactAudioCopyFreeDBPlugin 1.0
#
DISCID=1a112c14
DTITLE=Guru - Jazzmatazz Volume II The New Reality
DYEAR=1995
DGENRE=Jazz
TTITLE0=Intro (Light it Up) Jazzalude I New Reality Style
TTITLE1=Guru, Baybe, Lucien - Lifesaver
TTITLE2=Guru, Sweet Sable, J. Rodriguez - Living in this World
TTITLE3=Guru, Mica Paris - Looking through Darkness
TTITLE4=Guru, Chaka Khan, Branford Marsalis - Skit A (Interview) Watch
TTITLE4=What You Say
TTITLE5=Jazzalude II Defining Purpose
TTITLE6=Guru, Me'shell N'Degeocello, Kenny Garrett - For You
TTITLE7=Guru, Ini Kamoze, Tru Master, Donald Byrd, DJ Red Handed - Ins
TTITLE7=ert A (Mental Relaxation) Medicine
TTITLE8=Guru, Jamiroquai - Lost Souls
TTITLE9=Guru, Shara Nelson, Jan Kincaid - Insert B (The Real Deal) Nob
TTITLE9=ody Knows
TTITLE10=Jazzalude III Hip Hop as a Way of Life
TTITLE11=Guru, Bahamadia, Ramsey Lewis, Brian Holt, DJ Scratch - Respe
TTITLE11=ct the Architect
TTITLE12=Guru. Baybe, Paul Ferguson - Feel the Music
TTITLE13=Guru, Big Shug, Kool Keith, Patra, Reuben Wilson, Kenny Garre
TTITLE13=tt, Brian Holt, DJ Sean-Ski - You
TTITLE14=Guru, Donald Byrd - The Traveler
TTITLE15=Jazzalude IV Maintaining Focus
TTITLE16=Guru, Bernard Purdie, Brian Holt - Count Your Blessings
TTITLE17=Guru, DC Lee, Gus Da Vigilante, Courtney Pine, Dennis Mitchel
TTITLE17=l - Choice of Weapons
TTITLE18=Guru, Freddie Hubbard - Something in the Past
TTITLE19=Guru, Ronny Jordan, Bu - Skit B (A Lot on My Mind) Revelation
EXTD=www.RapMusicGuide.com\n
EXTT0=
EXTT1=
EXTT2=
EXTT3=
EXTT4=
EXTT5=
EXTT6=
EXTT7=
EXTT8=
EXTT9=
EXTT10=
EXTT11=
EXTT12=
EXTT13=
EXTT14=
EXTT15=
EXTT16=
EXTT17=
EXTT18=
EXTT19=
PLAYORDER=
